<?xml version="1.0" standalone="no"?>
<!DOCTYPE svg PUBLIC "-//W3C//DTD SVG 1.1//EN" "http://www.w3.org/Graphics/SVG/1.1/DTD/svg11.dtd">
<svg version="1.1" xmlns="http://www.w3.org/2000/svg" viewBox="0 0 830 357.59765625" width="1660" height="715.1953125"><!-- svg-source:excalidraw --><metadata></metadata><defs><style class="style-fonts">
      </style></defs><rect x="0" y="0" width="830" height="357.59765625" fill="#0f1015"></rect><g stroke-linecap="round" transform="translate(10 15.0625) rotate(0 158.302734375 166.267578125)"><path d="M32 0 C132.65 0, 233.3 0, 284.61 0 C305.94 0, 316.61 10.67, 316.61 32 C316.61 122.12, 316.61 212.23, 316.61 300.54 C316.61 321.87, 305.94 332.54, 284.61 332.54 C198.16 332.54, 111.72 332.54, 32 332.54 C10.67 332.54, 0 321.87, 0 300.54 C0 213.51, 0 126.49, 0 32 C0 10.67, 10.67 0, 32 0" stroke="none" stroke-width="0" fill="#14151c"></path><path d="M32 0 C82.63 0, 133.27 0, 284.61 0 M32 0 C132.89 0, 233.77 0, 284.61 0 M284.61 0 C305.94 0, 316.61 10.67, 316.61 32 M284.61 0 C305.94 0, 316.61 10.67, 316.61 32 M316.61 32 C316.61 126.05, 316.61 220.1, 316.61 300.54 M316.61 32 C316.61 126.58, 316.61 221.16, 316.61 300.54 M316.61 300.54 C316.61 321.87, 305.94 332.54, 284.61 332.54 M316.61 300.54 C316.61 321.87, 305.94 332.54, 284.61 332.54 M284.61 332.54 C191.84 332.54, 99.07 332.54, 32 332.54 M284.61 332.54 C188.1 332.54, 91.6 332.54, 32 332.54 M32 332.54 C10.67 332.54, 0 321.87, 0 300.54 M32 332.54 C10.67 332.54, 0 321.87, 0 300.54 M0 300.54 C0 225.1, 0 149.66, 0 32 M0 300.54 C0 235.64, 0 170.74, 0 32 M0 32 C0 10.67, 10.67 0, 32 0 M0 32 C0 10.67, 10.67 0, 32 0" stroke="#505270" stroke-width="2" fill="none"></path></g><g transform="translate(114.4091796875 17.0625) rotate(0 55.5908203125 12.5)"><text x="55.5908203125" y="17.900390625" font-family="Helvetica, sans-serif, Segoe UI Emoji" font-size="20px" fill="#dcdce9" text-anchor="middle" style="white-space: pre;" direction="ltr" dominant-baseline="alphabetic">Local Usage</text></g><g stroke-linecap="round" transform="translate(40 62.0625) rotate(0 130 50)"><path d="M25 0 C75.07 0, 125.14 0, 235 0 C251.67 0, 260 8.33, 260 25 C260 44.31, 260 63.63, 260 75 C260 91.67, 251.67 100, 235 100 C190.26 100, 145.52 100, 25 100 C8.33 100, 0 91.67, 0 75 C0 64.47, 0 53.95, 0 25 C0 8.33, 8.33 0, 25 0" stroke="none" stroke-width="0" fill="#1c1d26"></path><path d="M25 0 C67.1 0, 109.19 0, 235 0 M25 0 C97.11 0, 169.22 0, 235 0 M235 0 C251.67 0, 260 8.33, 260 25 M235 0 C251.67 0, 260 8.33, 260 25 M260 25 C260 44.26, 260 63.52, 260 75 M260 25 C260 41.56, 260 58.12, 260 75 M260 75 C260 91.67, 251.67 100, 235 100 M260 75 C260 91.67, 251.67 100, 235 100 M235 100 C151.3 100, 67.59 100, 25 100 M235 100 C190.13 100, 145.26 100, 25 100 M25 100 C8.33 100, 0 91.67, 0 75 M25 100 C8.33 100, 0 91.67, 0 75 M0 75 C0 62.27, 0 49.54, 0 25 M0 75 C0 55.27, 0 35.55, 0 25 M0 25 C0 8.33, 8.33 0, 25 0 M0 25 C0 8.33, 8.33 0, 25 0" stroke="#3d3e52" stroke-width="2" fill="none"></path></g><g transform="translate(100 87.0625) rotate(0 70 12.5)"><text x="70" y="16.1103515625" font-family="Helvetica, sans-serif, Segoe UI Emoji" font-size="18px" fill="#dcdce9" text-anchor="middle" style="white-space: pre;" direction="ltr" dominant-baseline="alphabetic">Desktop App</text></g><g transform="translate(95 117.0625) rotate(0 75 10)"><text x="75" y="11.63525390625" font-family="Helvetica, sans-serif, Segoe UI Emoji" font-size="13px" fill="#9a9ab5" text-anchor="middle" style="white-space: pre;" direction="ltr" dominant-baseline="alphabetic">Wails · native window</text></g><g stroke-linecap="round" transform="translate(40 222.0625) rotate(0 130 50)"><path d="M25 0 C87.66 0, 150.32 0, 235 0 C251.67 0, 260 8.33, 260 25 C260 43.12, 260 61.24, 260 75 C260 91.67, 251.67 100, 235 100 C188.95 100, 142.89 100, 25 100 C8.33 100, 0 91.67, 0 75 C0 57.99, 0 40.97, 0 25 C0 8.33, 8.33 0, 25 0" stroke="none" stroke-width="0" fill="#1c1d26"></path><path d="M25 0 C67.1 0, 109.2 0, 235 0 M25 0 C100.46 0, 175.93 0, 235 0 M235 0 C251.67 0, 260 8.33, 260 25 M235 0 C251.67 0, 260 8.33, 260 25 M260 25 C260 36.89, 260 48.77, 260 75 M260 25 C260 39.99, 260 54.98, 260 75 M260 75 C260 91.67, 251.67 100, 235 100 M260 75 C260 91.67, 251.67 100, 235 100 M235 100 C183.42 100, 131.84 100, 25 100 M235 100 C180.16 100, 125.32 100, 25 100 M25 100 C8.33 100, 0 91.67, 0 75 M25 100 C8.33 100, 0 91.67, 0 75 M0 75 C0 59.25, 0 43.5, 0 25 M0 75 C0 63.81, 0 52.62, 0 25 M0 25 C0 8.33, 8.33 0, 25 0 M0 25 C0 8.33, 8.33 0, 25 0" stroke="#3d3e52" stroke-width="2" fill="none"></path></g><g transform="translate(135 242.0625) rotate(0 35 12.5)"><text x="35" y="16.1103515625" font-family="Helvetica, sans-serif, Segoe UI Emoji" font-size="18px" fill="#dcdce9" text-anchor="middle" style="white-space: pre;" direction="ltr" dominant-baseline="alphabetic">nebi CLI</text></g><g transform="translate(75 272.0625) rotate(0 95 10)"><text x="95" y="11.63525390625" font-family="Helvetica, sans-serif, Segoe UI Emoji" font-size="13px" fill="#9a9ab5" text-anchor="middle" style="white-space: pre;" direction="ltr" dominant-baseline="alphabetic">Local-first · no server required</text></g><g stroke-linecap="round" transform="translate(523 10) rotate(0 147.97265625 49.615234375)"><path d="M24.81 0 C122.58 0, 220.34 0, 271.14 0 C287.68 0, 295.95 8.27, 295.95 24.81 C295.95 38.26, 295.95 51.72, 295.95 74.42 C295.95 90.96, 287.68 99.23, 271.14 99.23 C201.08 99.23, 131.03 99.23, 24.81 99.23 C8.27 99.23, 0 90.96, 0 74.42 C0 62.11, 0 49.8, 0 24.81 C0 8.27, 8.27 0, 24.81 0" stroke="none" stroke-width="0" fill="#1c1d26"></path><path d="M24.81 0 C74.3 0, 123.78 0, 271.14 0 M24.81 0 C123.03 0, 221.26 0, 271.14 0 M271.14 0 C287.68 0, 295.95 8.27, 295.95 24.81 M271.14 0 C287.68 0, 295.95 8.27, 295.95 24.81 M295.95 24.81 C295.95 39.72, 295.95 54.62, 295.95 74.42 M295.95 24.81 C295.95 39.91, 295.95 55.01, 295.95 74.42 M295.95 74.42 C295.95 90.96, 287.68 99.23, 271.14 99.23 M295.95 74.42 C295.95 90.96, 287.68 99.23, 271.14 99.23 M271.14 99.23 C188.74 99.23, 106.35 99.23, 24.81 99.23 M271.14 99.23 C181.46 99.23, 91.78 99.23, 24.81 99.23 M24.81 99.23 C8.27 99.23, 0 90.96, 0 74.42 M24.81 99.23 C8.27 99.23, 0 90.96, 0 74.42 M0 74.42 C0 56.47, 0 38.51, 0 24.81 M0 74.42 C0 60.37, 0 46.31, 0 24.81 M0 24.81 C0 8.27, 8.27 0, 24.81 0 M0 24.81 C0 8.27, 8.27 0, 24.81 0" stroke="#3d3e52" stroke-width="2" fill="none"></path></g><g transform="translate(622.48193359375 17.0625) rotate(0 47.51806640625 11.25)"><text x="47.51806640625" y="16.1103515625" font-family="Helvetica, sans-serif, Segoe UI Emoji" font-size="18px" fill="#dcdce9" text-anchor="middle" style="white-space: pre;" direction="ltr" dominant-baseline="alphabetic">Nebi Server</text></g><g transform="translate(572.10009765625 47.0625) rotate(0 97.89990234375 8.125)"><text x="97.89990234375" y="11.63525390625" font-family="Helvetica, sans-serif, Segoe UI Emoji" font-size="13px" fill="#9a9ab5" text-anchor="middle" style="white-space: pre;" direction="ltr" dominant-baseline="alphabetic">Multi-user · RBAC · Audit Logging</text></g><g stroke-linecap="round" transform="translate(520 212.0625) rotate(0 150 65)"><path d="M32 0 C125.3 0, 218.6 0, 268 0 C289.33 0, 300 10.67, 300 32 C300 45.65, 300 59.29, 300 98 C300 119.33, 289.33 130, 268 130 C214.52 130, 161.05 130, 32 130 C10.67 130, 0 119.33, 0 98 C0 73.44, 0 48.87, 0 32 C0 10.67, 10.67 0, 32 0" stroke="none" stroke-width="0" fill="#1c1d26"></path><path d="M32 0 C79.52 0, 127.04 0, 268 0 M32 0 C125.96 0, 219.92 0, 268 0 M268 0 C289.33 0, 300 10.67, 300 32 M268 0 C289.33 0, 300 10.67, 300 32 M300 32 C300 48.55, 300 65.09, 300 98 M300 32 C300 48.94, 300 65.87, 300 98 M300 98 C300 119.33, 289.33 130, 268 130 M300 98 C300 119.33, 289.33 130, 268 130 M268 130 C196.79 130, 125.58 130, 32 130 M268 130 C186.32 130, 104.64 130, 32 130 M32 130 C10.67 130, 0 119.33, 0 98 M32 130 C10.67 130, 0 119.33, 0 98 M0 98 C0 81.98, 0 65.95, 0 32 M0 98 C0 76.55, 0 55.1, 0 32 M0 32 C0 10.67, 10.67 0, 32 0 M0 32 C0 10.67, 10.67 0, 32 0" stroke="#3d3e52" stroke-width="2" fill="none"></path></g><g transform="translate(605 247.0625) rotate(0 65 12.5)"><text x="65" y="16.1103515625" font-family="Helvetica, sans-serif, Segoe UI Emoji" font-size="18px" fill="#dcdce9" text-anchor="middle" style="white-space: pre;" direction="ltr" dominant-baseline="alphabetic">OCI Registries</text></g><g transform="translate(590 280.0625) rotate(0 80 10)"><text x="80" y="11.63525390625" font-family="Helvetica, sans-serif, Segoe UI Emoji" font-size="13px" fill="#9a9ab5" text-anchor="middle" style="white-space: pre;" direction="ltr" dominant-baseline="alphabetic">GHCR · Quay.io · self-hosted</text></g><g stroke-linecap="round"><g transform="translate(330 44.0625) rotate(0 95 0)"><path d="M0 0 C31.67 0, 158.33 0, 190 0 M0 0 C31.67 0, 158.33 0, 190 0" stroke="#2aaa9a" stroke-width="2" fill="none"></path></g><g transform="translate(330 44.0625) rotate(0 95 0)"><path d="M166.51 8.55 C171.25 6.83, 175.99 5.1, 190 0 M166.51 8.55 C175.85 5.15, 185.19 1.75, 190 0" stroke="#2aaa9a" stroke-width="2" fill="none"></path></g><g transform="translate(330 44.0625) rotate(0 95 0)"><path d="M166.51 -8.55 C171.25 -6.83, 175.99 -5.1, 190 0 M166.51 -8.55 C175.85 -5.15, 185.19 -1.75, 190 0" stroke="#2aaa9a" stroke-width="2" fill="none"></path></g></g><mask></mask><g transform="translate(403.3154296875 21.5625) rotate(0 21.6845703125 12.5)"><text x="21.6845703125" y="17.900390625" font-family="Helvetica, sans-serif, Segoe UI Emoji" font-size="20px" fill="#2aaa9a" text-anchor="middle" style="white-space: pre;" direction="ltr" dominant-baseline="alphabetic">push</text></g><g stroke-linecap="round"><g transform="translate(520 70.0625) rotate(0 -95 0)"><path d="M0 0 C-31.67 0, -158.33 0, -190 0 M0 0 C-31.67 0, -158.33 0, -190 0" stroke="#2aaa9a" stroke-width="2" fill="none"></path></g><g transform="translate(520 70.0625) rotate(0 -95 0)"><path d="M-166.51 -8.55 C-171.25 -6.82, -175.99 -5.1, -190 0 M-166.51 -8.55 C-172.84 -6.25, -179.17 -3.94, -190 0" stroke="#2aaa9a" stroke-width="2" fill="none"></path></g><g transform="translate(520 70.0625) rotate(0 -95 0)"><path d="M-166.51 8.55 C-171.25 6.82, -175.99 5.1, -190 0 M-166.51 8.55 C-172.84 6.25, -179.17 3.94, -190 0" stroke="#2aaa9a" stroke-width="2" fill="none"></path></g></g><mask></mask><g transform="translate(409.43359375 71.5625) rotate(0 15.56640625 12.5)"><text x="15.56640625" y="17.900390625" font-family="Helvetica, sans-serif, Segoe UI Emoji" font-size="20px" fill="#2aaa9a" text-anchor="middle" style="white-space: pre;" direction="ltr" dominant-baseline="alphabetic">pull</text></g><g transform="translate(358.58984375 98.0625) rotate(0 66.91015625 10)"><text x="66.91015625" y="14.3203125" font-family="Helvetica, sans-serif, Segoe UI Emoji" font-size="16px" fill="#5e8a7a" text-anchor="middle" style="white-space: pre;" direction="ltr" dominant-baseline="alphabetic">pixi.toml + pixi.lock</text></g><g stroke-linecap="round"><g transform="translate(330 254.0625) rotate(0 95 0)"><path d="M0 0 C31.67 0, 158.33 0, 190 0 M0 0 C31.67 0, 158.33 0, 190 0" stroke="#eda61d" stroke-width="2" fill="none"></path></g><g transform="translate(330 254.0625) rotate(0 95 0)"><path d="M166.51 8.55 C171.25 6.82, 175.99 5.1, 190 0 M166.51 8.55 C171.52 6.72, 176.54 4.9, 190 0" stroke="#eda61d" stroke-width="2" fill="none"></path></g><g transform="translate(330 254.0625) rotate(0 95 0)"><path d="M166.51 -8.55 C171.25 -6.82, 175.99 -5.1, 190 0 M166.51 -8.55 C171.52 -6.72, 176.54 -4.9, 190 0" stroke="#eda61d" stroke-width="2" fill="none"></path></g></g><mask></mask><g transform="translate(393.310546875 231.5625) rotate(0 31.689453125 12.5)"><text x="31.689453125" y="17.900390625" font-family="Helvetica, sans-serif, Segoe UI Emoji" font-size="20px" fill="#eda61d" text-anchor="middle" style="white-space: pre;" direction="ltr" dominant-baseline="alphabetic">publish</text></g><g stroke-linecap="round"><g transform="translate(520 283.0625) rotate(0 -95 0)"><path d="M0 0 C-31.67 0, -158.33 0, -190 0 M0 0 C-31.67 0, -158.33 0, -190 0" stroke="#eda61d" stroke-width="2" fill="none"></path></g><g transform="translate(520 283.0625) rotate(0 -95 0)"><path d="M-166.51 -8.55 C-171.25 -6.82, -175.99 -5.1, -190 0 M-166.51 -8.55 C-173.21 -6.11, -179.92 -3.67, -190 0" stroke="#eda61d" stroke-width="2" fill="none"></path></g><g transform="translate(520 283.0625) rotate(0 -95 0)"><path d="M-166.51 8.55 C-171.25 6.82, -175.99 5.1, -190 0 M-166.51 8.55 C-173.21 6.11, -179.92 3.67, -190 0" stroke="#eda61d" stroke-width="2" fill="none"></path></g></g><mask></mask><g transform="translate(397.216796875 284.5625) rotate(0 27.783203125 12.5)"><text x="27.783203125" y="17.900390625" font-family="Helvetica, sans-serif, Segoe UI Emoji" font-size="20px" fill="#eda61d" text-anchor="middle" style="white-space: pre;" direction="ltr" dominant-baseline="alphabetic">import</text></g><g transform="translate(358.58984375 311.0625) rotate(0 66.91015625 10)"><text x="66.91015625" y="14.3203125" font-family="Helvetica, sans-serif, Segoe UI Emoji" font-size="16px" fill="#b5922a" text-anchor="middle" style="white-space: pre;" direction="ltr" dominant-baseline="alphabetic">pixi.toml + pixi.lock</text></g><g stroke-linecap="round"><g transform="translate(593 110.0625) rotate(0 0 50)"><path d="M0 0 C0 16.67, 0 83.33, 0 100 M0 0 C0 16.67, 0 83.33, 0 100" stroke="#eda61d" stroke-width="2" fill="none"></path></g><g transform="translate(593 110.0625) rotate(0 0 50)"><path d="M-8.55 76.51 C-6.82 81.25, -5.1 85.99, 0 100 M-8.55 76.51 C-6.59 81.9, -4.63 87.29, 0 100" stroke="#eda61d" stroke-width="2" fill="none"></path></g><g transform="translate(593 110.0625) rotate(0 0 50)"><path d="M8.55 76.51 C6.82 81.25, 5.1 85.99, 0 100 M8.55 76.51 C6.59 81.9, 4.63 87.29, 0 100" stroke="#eda61d" stroke-width="2" fill="none"></path></g></g><mask></mask><g stroke-linecap="round"><g transform="translate(748 210.0625) rotate(0 0 -50)"><path d="M0 0 C0 -16.67, 0 -83.33, 0 -100 M0 0 C0 -16.67, 0 -83.33, 0 -100" stroke="#eda61d" stroke-width="2" fill="none"></path></g><g transform="translate(748 210.0625) rotate(0 0 -50)"><path d="M8.55 -76.51 C6.82 -81.25, 5.1 -85.99, 0 -100 M8.55 -76.51 C5.97 -83.59, 3.39 -90.67, 0 -100" stroke="#eda61d" stroke-width="2" fill="none"></path></g><g transform="translate(748 210.0625) rotate(0 0 -50)"><path d="M-8.55 -76.51 C-6.82 -81.25, -5.1 -85.99, 0 -100 M-8.55 -76.51 C-5.97 -83.59, -3.39 -90.67, 0 -100" stroke="#eda61d" stroke-width="2" fill="none"></path></g></g><mask></mask><g transform="translate(635.9375 128.0625) rotate(0 31.5625 30)"><text x="31.5625" y="14.3203125" font-family="Helvetica, sans-serif, Segoe UI Emoji" font-size="16px" fill="#b5922a" text-anchor="middle" style="white-space: pre;" direction="ltr" dominant-baseline="alphabetic">pixi.toml </text><text x="31.5625" y="34.3203125" font-family="Helvetica, sans-serif, Segoe UI Emoji" font-size="16px" fill="#b5922a" text-anchor="middle" style="white-space: pre;" direction="ltr" dominant-baseline="alphabetic">+ </text><text x="31.5625" y="54.3203125" font-family="Helvetica, sans-serif, Segoe UI Emoji" font-size="16px" fill="#b5922a" text-anchor="middle" style="white-space: pre;" direction="ltr" dominant-baseline="alphabetic">pixi.lock</text></g><g transform="translate(549.529296875 134.21612548828125) rotate(270.522893509485 31.689453125 12.5)"><text x="31.689453125" y="17.900390625" font-family="Helvetica, sans-serif, Segoe UI Emoji" font-size="20px" fill="#eda61d" text-anchor="middle" style="white-space: pre;" direction="ltr" dominant-baseline="alphabetic">publish</text></g><g transform="translate(707.884765625 158.40753173828125) rotate(270.4150647468591 27.783203125 12.5)"><text x="27.783203125" y="17.900390625" font-family="Helvetica, sans-serif, Segoe UI Emoji" font-size="20px" fill="#eda61d" text-anchor="middle" style="white-space: pre;" direction="ltr" dominant-baseline="alphabetic">import</text></g></svg>